<?xml version="1.0" encoding="UTF-8"?>
<svg xmlns="http://www.w3.org/2000/svg" viewBox="0 0 1095 1095" width="1095" height="1095">
<path d="M370.5 240.01C488.5 240.01 606.5 240.01 724.5 240.01C726.97 235.46 728.53 230.61 732.96 227.46C741.32 221.53 764.99 223.98 775.5 223.97C812.29 223.94 850.08 221.39 885.59 232.83C894.12 235.58 903.13 238.35 911.14 242.39C914.55 244.12 918.37 245.83 920.09 249.46C922.35 254.22 920.4 259.52 920.59 264.5C928.52 270.72 937.56 275.7 945.58 281.94C958.53 291.99 970.08 304.5 980 317.52C1015.07 363.5 1032.38 421.69 1044.25 477.44C1057.97 541.9 1065.39 607.87 1070.75 673.5C1075.98 737.55 1081.66 825.77 1015.35 861.87C991.09 875.07 959.48 875.74 935.12 862.39C920.81 854.56 909.64 842.36 900.23 829.27C877.53 797.69 868.43 754.48 853.72 718.73C842.24 690.84 824.15 665.8 800.43 647.04C793.21 641.33 775.89 630.43 766.5 631.88C763.01 632.42 759.85 636.51 757.19 638.66C752.64 642.36 747.55 645.15 742.39 647.9C726.89 656.14 707.93 659.22 690.56 657.61C665.43 655.29 643.18 643.71 625.46 626.03C620.7 621.27 616.88 615.91 613.05 610.42C611.43 608.09 610.04 604.38 607.46 602.97C604.8 601.51 600.44 602.3 597.5 602.28C590.17 602.22 582.83 602.2 575.5 602.23C556.5 602.29 537.5 602.26 518.5 602.24C509.17 602.22 499 601.13 489.76 602.45C485.76 603.03 484.34 606.71 482.32 609.79C478.41 615.78 473.94 621.31 469.01 626.5C456.2 639.96 438.98 649.56 421.21 654.62C399.16 660.9 374.33 658.67 353.67 648.83C348.01 646.13 342.36 642.96 337.46 639.03C334.65 636.77 331.19 632.36 327.5 631.92C322.77 631.36 317.54 633.93 313.35 635.82C301.61 641.13 290.79 649.11 281.53 658.04C233.32 704.53 230.37 769.71 197.38 824.85C176.18 860.28 137.86 880.68 96.54 868.9C88.33 866.56 80.45 862.82 73.3 858.2C16.04 821.18 18.68 743.73 23.49 683.96C29.57 608.49 38.17 533.32 54.72 459.37C67.49 402.36 89.34 343.56 129.5 300.01C142.73 285.66 158.62 275.43 174.5 264.5C174.33 258.98 172.35 253.2 175.59 248.12C178.01 244.31 183.34 242.44 187.31 240.78C197.02 236.72 207.08 233.05 217.34 230.68C226.7 228.51 235.96 226.36 245.52 225.29C269.3 222.64 293.62 223.98 317.5 223.95C328.36 223.93 352.55 221.44 361.25 227.27C366.07 230.51 367.36 235.51 370.5 240.01ZM275 239.63C278.33 239.62 281.67 239.62 285 239.62C290.67 239.62 296.33 239.62 302 239.63C306.33 239.62 310.67 239.62 315 239.62C326.67 239.62 338.33 239.62 350 239.62C353.83 239.62 357.67 239.61 361.5 239.6C361.59 239.4 361.67 239.2 361.76 239C361.02 233.98 356.34 230.97 351.45 230.21C341.84 228.72 331.22 229.96 321.5 229.95C282.74 229.92 248.16 228.2 210.4 238.79C202.95 240.88 195.51 243.74 188.46 246.93C185.85 248.11 182.13 249.55 180.74 252.26C179.43 254.8 180.11 257.88 180.78 260.5C185.76 260.11 191.17 256.39 195.87 254.4C202.58 251.55 209.57 249.17 216.55 247.08C235.78 241.31 255.08 240.2 275 239.63ZM733.11 239C733.24 239.21 733.37 239.42 733.5 239.63C734.33 239.62 735.17 239.62 736 239.62C739 239.62 742 239.62 745 239.62C751 239.62 757 239.61 763 239.61C775.67 239.61 788.33 239.61 801 239.61C803.33 239.61 805.67 239.61 808 239.61C828.44 240.07 848.11 240.02 868.21 244.42C884.15 247.91 898.5 254.82 913.5 260.88C916.91 254.27 913.22 250.08 907.23 247.3C898.24 243.14 888.75 239.78 879.15 237.4C871.85 235.58 864.72 233.61 857.28 232.4C828.25 227.7 797.81 229.92 768.5 229.93C759.43 229.93 734.69 226.35 733.11 239ZM278 633.7C279 633.57 280 633.44 281 633.31C294.74 632.32 310.04 629.76 322.85 624.5C319.73 619.69 316.62 614.88 313.5 610.06C308.36 610.86 303.43 612.6 298.37 613.76C290.17 615.63 281.89 616.65 273.5 617.25C229.69 620.34 185.89 608.52 151.17 581.35C135.96 569.44 122.65 554.3 112.63 537.82C98.57 514.7 89.99 489.42 87.29 462.47C85.55 445.02 87.65 427.05 91.51 410.06C109.06 332.71 170.73 271.27 251 262.7C251.96 262.57 252.92 262.43 253.89 262.3C257.92 262.1 261.96 261.89 266 261.69C448.67 261.69 631.33 261.69 814 261.69C815 261.69 816 261.69 817 261.69C819.67 261.69 822.33 261.69 825 261.69C830.05 261.89 835.1 262.1 840.15 262.3C841.1 262.44 842.05 262.57 843 262.71C931.7 272.72 997.57 345.21 1006.3 433C1006.43 434.01 1006.56 435.01 1006.69 436.02C1007.62 457.11 1006.11 478.11 999.82 498.39C981.9 556.2 933.72 601.13 874.44 613.83C852.41 618.56 828.84 619.09 806.54 615.77C797.72 614.45 789.22 611.62 780.5 609.85C777.44 614.73 774.38 619.62 771.32 624.5C785.38 628.58 799.41 632.07 814.04 633.29C815.03 633.43 816.01 633.56 817 633.69C904.24 640.97 983.64 588.16 1012.74 506.3C1020.59 484.2 1022.8 460.27 1021.62 437C1021.52 435.96 1021.42 434.93 1021.33 433.89C1020.61 411.74 1012.32 390.18 1003.33 370.21C979.39 317.04 937.86 272.31 881.2 254.39C853.66 245.68 827.03 246.12 798.5 246.17C769.83 246.22 741.16 246.26 712.5 246.17C605.5 245.86 498.5 246.01 391.5 246.18C361.17 246.23 330.83 246.17 300.5 246.16C282.62 246.15 264.3 245.02 246.52 247.21C208.5 251.89 170.33 269.44 142.71 296.2C101.18 336.44 70.87 396.97 72.86 455.5C76.48 562.38 173.08 642.12 278 633.7ZM240.13 612.29C241.09 612.43 242.04 612.56 243 612.69C261.61 614.33 294.45 613.6 311.55 605.5C307.68 595.87 304.59 586.43 303.69 576C303.56 575.03 303.43 574.05 303.3 573.08C302.4 561.6 304.12 549.25 307.77 538.31C326.07 483.34 391.1 453.22 443.73 480.74C454.19 486.21 463.6 493.18 471.57 501.91C479.68 510.8 485.68 521.38 489.84 532.63C495.84 548.86 495.83 566.79 491.83 583.45C490.84 587.55 489.01 591.41 488.11 595.5C527.65 595.5 567.19 595.5 606.74 595.5C605.8 591.44 604.12 587.54 603.17 583.44C599.03 565.6 599.7 547.07 606.45 529.91C610.51 519.59 616.59 510.63 623.71 502.24C630.16 494.64 638.27 488.39 646.82 483.35C706.71 448.07 783.93 489.73 790.36 558C790.47 558.97 790.58 559.94 790.69 560.91C791.31 570.91 790.3 581.52 787.61 591.2C786.25 596.08 783.92 600.63 782.59 605.5C798.97 612.77 827.7 614.12 845.5 613.08C864.26 611.99 882.66 608.57 900.21 601.65C946.44 583.41 983.9 541.33 996.67 493.27C1020.48 403.73 968.51 306.67 881.57 275.91C868.15 271.16 854.07 267.64 839.83 266.7C838.56 266.59 837.28 266.48 836 266.37C821.23 265.59 806.29 266.21 791.5 266.21C761.5 266.2 731.5 266.24 701.5 266.19C603.5 266.05 505.5 266.54 407.5 266.18C374.17 266.05 340.83 266.2 307.5 266.18C287.11 266.17 265.98 264.56 245.75 267.43C226.5 270.17 207.35 276.67 190.06 285.57C131.76 315.55 93.56 379.45 91.2 444.5C90.08 475.43 98.96 506.37 114.6 532.89C122.67 546.57 132.93 559.17 144.64 569.87C156.95 581.11 170.62 590.77 185.84 597.63C203.13 605.43 221.15 610.82 240.13 612.29ZM834.47 300.4C840.09 300.08 845.42 300.81 850.72 302.71C892.21 317.58 882.12 379.25 838.5 381.94C832.99 382.28 827.29 381.41 822.15 379.4C782.14 363.73 791.65 302.87 834.47 300.4ZM833.74 306.42C798.32 310.62 789.84 362.08 824.49 374.05C828.68 375.49 833.06 376.27 837.5 376.11C842.38 375.93 847.48 374.63 851.79 372.33C863.69 365.96 871.38 354.19 871.39 340.5C871.42 320.78 853.51 304.08 833.74 306.42ZM171.71 430C171.58 427.28 171.46 424.57 171.33 421.85C171.79 411.45 171.71 400.91 171.39 390.5C171.25 386 170.49 380.12 174.53 376.99C178.39 373.99 184.93 375.27 189.5 375.31C197.83 375.39 206.17 375.21 214.5 375.22C218.81 375.22 223.53 375.97 227.5 374.19C229.93 370.35 228.84 364.97 228.85 360.5C228.85 351.83 228.84 343.17 228.89 334.5C228.91 330.69 227.99 325.63 229.59 322.09C231.71 317.36 237.21 317.83 241.5 317.81C252.16 317.77 262.85 318.2 273.5 317.91C277.65 317.79 283.97 316.75 286.25 321.29C287.94 324.67 287.16 329.81 287.29 333.5C287.62 342.48 287.49 351.51 287.49 360.5C287.49 364.98 286.68 369.94 288.5 374.06C292.59 376.24 297.91 375.31 302.5 375.28C311.49 375.22 320.51 375.2 329.5 375.3C333.06 375.33 338.07 374.42 341.29 376.17C345.8 378.62 345.55 384.09 345.56 388.5C345.57 399.81 345.33 411.13 345.48 422.44C345.54 427.05 346.01 433.18 340.85 435.38C337.33 436.88 332.26 436.13 328.5 436.13C319.5 436.13 310.5 436.04 301.5 436.07C298.15 436.08 293.15 435.21 290.05 436.56C285.92 438.36 287.39 445.98 287.4 449.5C287.44 458.16 287.43 466.83 287.45 475.5C287.46 479.33 288.24 484.22 286.08 487.6C283.99 490.88 279.96 490.84 276.5 490.9C268.49 491.02 260.5 490.64 252.5 490.86C247.65 490.99 236.71 492.25 232.69 489.84C227.74 486.86 228.86 480.4 228.88 475.5C228.91 466.83 228.8 458.16 228.95 449.5C229.02 445.39 229.76 440.51 227.5 436.99C223.58 435.35 218.76 436.1 214.5 436.08C205.83 436.05 197.17 436.09 188.5 436.11C181.58 436.13 174.79 437.42 171.71 430ZM280.26 324.5C271.78 322.3 261.32 323.72 252.5 323.75C247.1 323.77 241.09 323.03 235.93 324.5C234.35 328.4 235.05 333.26 235.05 337.5C235.06 346.17 235.05 354.83 235.05 363.5C235.05 369.02 236.11 375.76 231.15 379.63C227.34 382.6 221.01 381.39 216.5 381.35C207.83 381.28 199.16 381.28 190.5 381.39C186.44 381.44 182.19 380.78 178.5 382.44C176.36 389.89 177.84 406.94 177.77 415.5C177.73 420.01 176.99 425.38 178.83 429.5C188.59 431.77 205.83 430.09 216.5 430.16C221.25 430.2 228.18 428.86 231.91 432.58C236.11 436.77 235.05 443.12 235.05 448.5C235.04 459.01 233.52 473.73 235.5 483.7C239.08 485.51 243.46 484.8 247.5 484.79C254.79 484.78 274.89 486.27 280.5 483.93C282.71 474.85 281.15 457.49 281.12 447.5C281.1 442.34 280.27 436.01 284.76 432.28C288.7 429.02 294.77 430.15 299.5 430.15C308.17 430.13 316.83 430.2 325.5 430.17C329.75 430.16 334.7 430.89 338.5 429.04C340.7 420.26 339.21 407.76 339.23 398.5C339.25 393.42 340.05 387.28 338.39 382.5C334.49 380.64 329.81 381.41 325.5 381.39C316.83 381.35 308.16 381.33 299.5 381.4C294.71 381.45 288.35 382.48 284.47 379.03C279.88 374.96 281.13 367.97 281.14 362.5C281.14 354.17 281.13 345.83 281.13 337.5C281.14 333.25 281.79 328.45 280.26 324.5ZM463.65 368.38C471.74 367.31 480.34 368.14 488.5 368.12C504.5 368.1 520.5 368.03 536.5 368.14C556.16 368.26 575.84 368.22 595.5 368.13C606.76 368.08 618.26 367.49 629.5 368.17C646.04 369.17 659.47 383.63 656.9 400.48C655.02 412.81 644.38 421.94 632.27 423.59C627.46 424.24 622.34 423.81 617.5 423.8C579.83 423.72 542.17 423.79 504.5 423.79C491.23 423.79 465.14 426.24 453.77 420.72C427.69 408.06 436.09 372.02 463.65 368.38ZM756.74 368.39C761.91 367.61 767.39 367.94 772.48 369.08C795.48 374.21 807.3 399.59 800.66 421.24C795.82 437.03 780.68 448.34 764.49 449.78C759.88 450.19 754.86 449.59 750.43 448.24C709.3 435.71 714.62 374.78 756.74 368.39ZM906.65 368.35C912.39 367.54 918.47 367.94 924.05 369.48C966.6 381.21 959.78 444.91 916.37 449.63C911.16 450.19 905.48 449.73 900.49 448.08C860.09 434.74 864.4 374.28 906.65 368.35ZM465.16 372.74C442.56 374.67 433.31 402.21 453 415.5C456.61 417.95 460.71 418.84 464.97 419.32C466.31 419.42 467.66 419.53 469 419.64C469.33 419.64 469.67 419.64 470 419.64C523.36 419.53 576.73 419.43 630.09 419.32C634.55 418.78 638.95 417.78 642.7 415.17C662.61 401.36 651.58 374.21 629.09 372.68C618.4 372.57 607.7 372.46 597 372.34C593 372.34 589 372.35 585 372.35C567.67 372.35 550.33 372.34 533 372.34C530.67 372.34 528.33 372.34 526 372.34C510 372.34 494 372.34 478 372.34C477.33 372.34 476.67 372.34 476 372.34C475 372.34 474 372.34 473 372.34C471.33 372.34 469.67 372.34 468 372.34C467.05 372.47 466.1 372.61 465.16 372.74ZM756.75 374.41C721.57 380.2 717.14 432.7 752.02 442.48C756.84 443.83 761.94 444.14 766.9 443.46C803.51 438.48 807.17 383.82 770.53 374.88C766.02 373.78 761.34 373.66 756.75 374.41ZM906.72 374.4C871.4 380.48 867.47 433.6 902.89 442.54C907.27 443.65 911.76 444.15 916.27 443.57C953.51 438.78 958.18 385.14 921.5 374.99C916.78 373.68 911.54 373.57 906.72 374.4ZM466 377.66C483.33 377.65 500.67 377.64 518 377.64C541.8 380.07 542.95 411.53 519.26 414.62C507.11 416.2 492.86 414.81 480.5 414.78C473.48 414.76 465.49 415.62 458.97 412.5C440.84 403.83 447.29 380.9 466 377.66ZM576 377.66C579 377.65 582 377.64 585 377.63C585.67 377.63 586.33 377.63 587 377.63C601 377.63 615 377.64 629 377.64C645.59 380.35 654.29 398.76 639.85 410.37C632.88 415.97 622.88 414.79 614.5 414.79C606.5 414.78 598.5 414.79 590.5 414.78C576.23 414.77 561.78 415.39 558.67 398C558.68 396.67 558.69 395.33 558.7 394C560.75 384.55 566.54 379.32 576 377.66ZM453.73 394.05C453.71 395.41 453.69 396.77 453.67 398.13C455.6 408 464.21 409.83 473 409.6C477.33 409.6 481.67 409.6 486 409.6C492.49 409.74 499 409.63 505.5 409.62C515.73 409.59 528.92 410.98 531.29 398.03C531.27 396.72 531.25 395.4 531.23 394.09C530.1 388.13 525.59 383.7 519.5 382.83C509.58 381.42 498.53 382.63 488.5 382.72C481.07 382.78 472.83 381.73 465.5 382.89C459.48 383.84 455.09 388.28 453.73 394.05ZM573.72 383.34C562.6 386.44 560.15 401.24 570.02 407.47C575.08 410.67 581.83 409.58 587.5 409.59C597.17 409.6 606.83 409.67 616.5 409.63C620.65 409.61 625.08 410.05 629.2 409.52C635 408.78 640.69 404.32 641.66 398.33C642.68 392.01 638.35 385.29 632.21 383.41C626.51 381.66 619.42 382.72 613.5 382.7C605.17 382.67 596.83 382.75 588.5 382.73C583.67 382.72 578.41 382.03 573.72 383.34ZM834.65 434.44C878.83 431.41 893.73 493.81 854.24 512.73C848.83 515.33 842.5 516.69 836.5 516.74C831.22 516.79 825.73 515.65 820.89 513.59C781.43 496.83 792.02 437.36 834.65 434.44ZM66.91 438.8C63.13 445.38 60.33 462.37 58.69 470.41C55.17 487.73 51.86 505.05 48.92 522.48C43.43 555.03 39.9 587.73 35.83 620.48C32.23 649.4 29.34 678.81 28.68 707.99C28.57 709 28.46 710 28.34 711C25.8 747.89 27.77 788.07 46.71 820.77C72.49 865.31 131.81 882.52 171.99 845.49C208.65 811.71 219.03 753.15 238.25 708.73C247.58 687.18 262.26 666.9 279.56 651.06C284.77 646.29 290.64 642.41 296 637.88C296.66 637.42 297.33 636.96 297.99 636.5C296.7 636.56 295.41 636.63 294.12 636.69C288.08 637.25 282.04 637.81 276 638.37C274.68 638.47 273.36 638.58 272.04 638.68C265.05 638.68 258.06 638.68 251.07 638.68C250.05 638.57 249.02 638.47 248 638.37C179.95 632 117.8 593.21 87.48 531.04C76.96 509.48 71.47 486.71 68.7 463C68.57 461.38 68.44 459.75 68.31 458.13C68.17 451.75 68.04 445.38 67.9 439C67.77 437.88 67.63 436.76 67.5 435.64C67.3 436.69 67.1 437.74 66.91 438.8ZM1026.7 439.87C1026.69 443.63 1026.69 447.39 1026.68 451.16C1026.56 453.77 1026.44 456.39 1026.32 459C1024.36 483.93 1018.4 507.61 1007.79 530.3C981.7 586.05 927.06 624.32 867.36 635.73C852.74 638.53 837.67 639.23 822.8 638.52C814.44 638.12 804.79 635.24 796.66 636.5C802.8 641.53 809.54 645.67 815.4 651.09C832.7 667.09 847.03 687.34 856.59 708.87C876.91 754.61 885.82 813.1 925.05 847.46C935.21 856.36 947.92 862.27 961.19 864.47C969.77 865.89 979.2 865.84 987.79 864.46C995.08 863.28 1001.77 861.03 1008.5 858C1061.49 834.21 1069.68 765.73 1066.65 715C1066.54 713.71 1066.42 712.42 1066.31 711.12C1066.33 699.51 1065.18 687.98 1064.41 676.4C1061.93 638.93 1057.55 601.57 1052.21 564.45C1048.35 537.63 1044.26 511.07 1039.08 484.48C1036.02 468.76 1033.36 452.05 1027.76 437C1027.34 436.58 1026.92 436.16 1026.5 435.74C1026.57 437.12 1026.63 438.5 1026.7 439.87ZM833.65 440.42C796.48 444.07 790.67 496.04 825.51 508.95C830 510.61 834.7 511 839.46 510.64C877.61 507.77 883.21 452.82 846.56 441.84C842.35 440.58 838.06 439.99 833.65 440.42ZM388.62 475.35C349.06 481.5 314.25 513.55 308.47 553.86C300.51 609.29 345.62 656.64 401.5 651.91C443.63 648.34 484.93 615.2 489.77 571.48C495.97 515.43 444.52 466.66 388.62 475.35ZM682.6 475.35C670.3 477.13 658.82 481.3 648.11 487.59C638.39 493.29 629.55 501.28 622.76 510.26C616.24 518.87 611.21 528.21 608.19 538.62C588.69 605.78 656.64 664.65 721.19 649.56C731.66 647.11 741.82 642.19 750.64 636.09C758.43 630.7 765.05 623.78 770.65 616.19C776.38 608.43 780.37 599.77 783.1 590.55C801.07 529.8 745.18 466.26 682.6 475.35ZM393.58 492.39C403.73 491.54 414.58 492.72 424.11 496.42C434.21 500.34 443.74 506.39 451.31 514.19C457.12 520.18 462.02 527.56 465.31 535.22C485.41 582.02 451.62 634.11 401.35 636.55C391.8 637.01 382.43 635.25 373.48 632.04C365.33 629.13 357.91 624.75 351.37 619.09C303.61 577.74 331.21 497.58 393.58 492.39ZM687.76 494.42C697.21 492.95 707.5 494.08 716.61 496.78C725 499.26 732.9 503.26 739.85 508.62C781.49 540.73 775.53 605.24 729.26 629.74C721.29 633.96 712.48 636.83 703.52 637.77C693.33 638.84 682.44 638.19 672.74 634.71C662.67 631.11 653.64 626 645.8 618.68C639.65 612.93 634.53 606.22 630.84 598.62C608.85 553.36 639.55 501.92 687.76 494.42ZM522.77 497.42C532.13 496.32 533.86 510.97 524.46 511.81C515.21 512.64 513.42 498.52 522.77 497.42ZM390.87 498.48C343.28 505.72 318 558.54 342.43 600.07C346.33 606.7 352.04 612.71 358.13 617.4C364.75 622.49 372.31 626.04 380.35 628.28C388.54 630.55 397.07 631.41 405.53 630.35C415.42 629.12 425.5 625.97 433.79 620.33C450.03 609.26 461.97 593.4 464.69 573.45C470.52 530.78 434.48 491.86 390.87 498.48ZM544.66 498.19C553.64 494.94 559.45 507.46 550.75 511.29C542.1 515.11 536.02 501.31 544.66 498.19ZM570 497.69C571 497.67 572 497.66 573 497.64C581.68 500.28 580.37 512.09 571.5 511.87C562.85 511.65 562.38 500.84 570 497.69ZM686.71 500.37C630.07 509.89 608.62 583.42 655.24 619.28C661.86 624.37 669.42 627.88 677.47 630.08C685.92 632.4 694.81 633.04 703.5 631.92C713.09 630.68 722.54 627.43 730.64 622.11C747.41 611.1 759.7 593.88 761.76 573.5C766.08 530.91 730.34 493.04 686.71 500.37ZM522.6 501.14C517.96 502.18 520.52 509.47 525.25 507.69C529.28 506.16 526.62 500.23 522.6 501.14ZM546.61 501.1C541.99 502.32 544.5 509.52 549.26 507.73C553.26 506.22 550.84 499.98 546.61 501.1ZM570.66 501.28C566.09 502.4 568.67 509.42 573.26 507.71C577.18 506.25 574.67 500.29 570.66 501.28ZM392.66 510.33C399.46 509.29 406.25 509.85 412.89 511.56C460.42 523.8 467.31 588.89 424.47 611.98C417.15 615.93 409.82 618.14 401.5 618.72C370.65 620.88 342.21 593.7 344.2 562.5C345.9 535.97 366.64 514.32 392.66 510.33ZM687.71 512.39C694.67 511.18 701.63 511.38 708.5 512.96C756.9 524.09 764.44 589.35 721.94 613.45C716.24 616.68 710.02 619.1 703.5 619.95C695.48 621 688.08 620.41 680.27 618.34C673.76 616.62 668.27 613.56 662.89 609.59C623.81 580.76 641.34 520.44 687.71 512.39ZM391.65 516.3C370.53 519.94 351.71 538.71 350.04 560.5C347.83 589.41 372.98 616.04 402.5 612.95C409.86 612.17 417.23 609.89 423.55 606.03C460.88 583.22 452.51 526.63 409.66 516.67C403.87 515.32 397.49 515.29 391.65 516.3ZM694.71 517.45C671.22 518.78 649.37 537.42 647.01 561.5C644.27 589.42 667.27 615.2 695.5 615C702.16 614.95 708.98 613.23 715.06 610.54C754.67 593.01 753.81 533.23 711.58 519.83C706.15 518.1 700.43 517.12 694.71 517.45ZM532.69 523.25C537.96 522.06 560.65 522.14 565.27 524.26C572.84 527.73 576.17 537.01 571.88 544.36C570.3 547.07 567.33 549.8 564.28 550.71C560.23 551.92 555.66 551.47 551.5 551.47C542.73 551.49 531.54 553.88 525.01 546.5C518.08 538.67 522.5 525.56 532.69 523.25ZM533.59 527.27C525.62 528.64 523.08 540.28 529.19 545.29C532.12 547.7 535.95 547.39 539.5 547.39C547.1 547.39 565.78 550.45 568.76 541.31C574.41 523.98 552.2 527 542.5 527.07C539.6 527.09 536.46 526.78 533.59 527.27ZM251.69 541.41C285.93 537.99 289.83 592.74 255.47 594.69C222.86 596.55 219.7 544.6 251.69 541.41ZM838.63 541.39C873.25 538.2 876.22 593.79 841.5 594.74C809.3 595.62 806.97 544.32 838.63 541.39ZM248.68 547.28C224.22 553.4 232.58 595.34 259.46 588.9C284.82 582.81 276.38 540.35 248.68 547.28ZM835.64 547.25C811.07 553.08 819.28 595.57 846.44 588.85C871.57 582.63 863.25 540.7 835.64 547.25Z" fill="#090909" fill-rule="evenodd" stroke="#090909" stroke-width="0.25" stroke-linejoin="round"/>
<path d="M285 239.62C281.67 239.62 278.33 239.62 275 239.63C275.17 239.42 275.33 239.21 275.5 239C278.5 239 281.5 239 284.5 239C284.67 239.21 284.83 239.41 285 239.62ZM315 239.62C310.67 239.62 306.33 239.62 302 239.63C302.17 239.42 302.33 239.21 302.5 239C306.5 239 310.5 239 314.5 239C314.67 239.21 314.83 239.41 315 239.62ZM361.76 239C361.67 239.2 361.59 239.4 361.5 239.6C357.67 239.61 353.83 239.62 350 239.62C350.17 239.42 350.33 239.21 350.5 239C354.25 239 358.01 239 361.76 239ZM733.11 239C733.91 239 734.7 239 735.5 239C735.67 239.21 735.83 239.41 736 239.62C735.17 239.62 734.33 239.62 733.5 239.63C733.37 239.42 733.24 239.21 733.11 239ZM763 239.61C757 239.61 751 239.62 745 239.62C745.17 239.41 745.33 239.21 745.5 239C751.17 239 756.83 239 762.5 239C762.67 239.2 762.83 239.41 763 239.61ZM808 239.61C805.67 239.61 803.33 239.61 801 239.61C801.17 239.41 801.33 239.2 801.5 239C803.5 239 805.5 239 807.5 239C807.67 239.2 807.83 239.41 808 239.61ZM814 261.69C631.33 261.69 448.67 261.69 266 261.69C448.67 261.69 631.33 261.69 814 261.69ZM825 261.69C822.33 261.69 819.67 261.69 817 261.69C817.17 261.46 817.33 261.23 817.5 261C819.83 261 822.17 261 824.5 261C824.67 261.23 824.83 261.46 825 261.69ZM253.89 262.3C252.92 262.43 251.96 262.57 251 262.7C251.17 262.47 251.33 262.23 251.5 262C252.3 262.1 253.09 262.2 253.89 262.3ZM840.15 262.3C840.93 262.2 841.72 262.1 842.5 262C842.67 262.24 842.83 262.47 843 262.71C842.05 262.57 841.1 262.44 840.15 262.3ZM836 266.37C837.28 266.48 838.56 266.59 839.83 266.7C838.72 266.8 837.61 266.9 836.5 267C836.33 266.79 836.17 266.58 836 266.37ZM468 372.34C467.83 372.56 467.67 372.78 467.5 373C466.72 372.91 465.94 372.83 465.16 372.74C466.1 372.61 467.05 372.47 468 372.34ZM473 372.34C474 372.34 475 372.34 476 372.34C475.17 372.56 474.33 372.78 473.5 373C473.33 372.78 473.17 372.56 473 372.34ZM478 372.34C494 372.34 510 372.34 526 372.34C510 372.34 494 372.34 478 372.34ZM533 372.34C550.33 372.34 567.67 372.35 585 372.35C567.67 372.35 550.33 372.34 533 372.34ZM597 372.34C607.7 372.46 618.4 372.57 629.09 372.68C618.4 372.57 607.7 372.46 597 372.34ZM518 377.64C500.67 377.64 483.33 377.65 466 377.66C483.33 377.65 500.67 377.64 518 377.64ZM585 377.63C582 377.64 579 377.65 576 377.66C576.17 377.44 576.33 377.22 576.5 377C579.17 377 581.83 377 584.5 377C584.67 377.21 584.83 377.42 585 377.63ZM629 377.64C615 377.64 601 377.63 587 377.63C601 377.63 615 377.64 629 377.64ZM453.73 394.05C453.71 395.41 453.69 396.77 453.67 398.13C453.69 396.77 453.71 395.41 453.73 394.05ZM531.23 394.09C531.25 395.4 531.27 396.72 531.29 398.03C531.27 396.72 531.25 395.4 531.23 394.09ZM558.7 394C558.69 395.33 558.68 396.67 558.67 398C558.45 397.83 558.22 397.67 558 397.5C558 396.5 558 395.5 558 394.5C558.23 394.33 558.47 394.17 558.7 394ZM486 409.6C481.67 409.6 477.33 409.6 473 409.6C473.17 409.4 473.33 409.2 473.5 409C477.5 409 481.5 409 485.5 409C485.67 409.2 485.83 409.4 486 409.6ZM464.97 419.32C466.15 419.21 467.32 419.11 468.5 419C468.67 419.21 468.83 419.42 469 419.64C467.66 419.53 466.31 419.42 464.97 419.32ZM630.09 419.32C576.73 419.43 523.36 419.53 470 419.64C523.36 419.53 576.73 419.43 630.09 419.32ZM171.33 421.85C171.46 424.57 171.58 427.28 171.71 430C171.47 429.83 171.24 429.67 171 429.5C171.11 426.95 171.22 424.4 171.33 421.85ZM1006.3 433C1006.54 433.17 1006.77 433.33 1007 433.5C1006.9 434.34 1006.79 435.18 1006.69 436.02C1006.56 435.01 1006.43 434.01 1006.3 433ZM1021.33 433.89C1021.42 434.93 1021.52 435.96 1021.62 437C1021.41 436.83 1021.21 436.67 1021 436.5C1021.11 435.63 1021.22 434.76 1021.33 433.89ZM67.9 439C67.57 438.93 67.24 438.86 66.91 438.8C67.1 437.74 67.3 436.69 67.5 435.64C67.63 436.76 67.77 437.88 67.9 439ZM1027.76 437C1027.5 437.17 1027.25 437.33 1027 437.5C1026.9 438.29 1026.8 439.08 1026.7 439.87C1026.63 438.5 1026.57 437.12 1026.5 435.74C1026.92 436.16 1027.34 436.58 1027.76 437ZM1026.68 451.16C1026.79 453.6 1026.89 456.05 1027 458.5C1026.77 458.67 1026.54 458.83 1026.32 459C1026.44 456.39 1026.56 453.77 1026.68 451.16ZM68.31 458.13C68.44 459.75 68.57 461.38 68.7 463C68.46 462.83 68.23 462.67 68 462.5C68.1 461.04 68.21 459.59 68.31 458.13ZM573 497.64C572 497.66 571 497.67 570 497.69C570.17 497.46 570.33 497.23 570.5 497C571.33 497.21 572.17 497.43 573 497.64ZM790.36 558C790.57 558.17 790.79 558.33 791 558.5C790.9 559.3 790.8 560.11 790.69 560.91C790.58 559.94 790.47 558.97 790.36 558ZM303.3 573.08C303.43 574.05 303.56 575.03 303.69 576C303.46 575.83 303.23 575.67 303 575.5C303.1 574.69 303.2 573.89 303.3 573.08ZM240.13 612.29C240.92 612.2 241.71 612.1 242.5 612C242.67 612.23 242.83 612.46 243 612.69C242.04 612.56 241.09 612.43 240.13 612.29ZM281 633.31C280 633.44 279 633.57 278 633.7C278.17 633.47 278.33 633.23 278.5 633C279.33 633.1 280.17 633.21 281 633.31ZM814.04 633.29C814.86 633.2 815.68 633.1 816.5 633C816.67 633.23 816.83 633.46 817 633.69C816.01 633.56 815.03 633.43 814.04 633.29ZM296 637.88C295.37 637.48 294.75 637.09 294.12 636.69C295.41 636.63 296.7 636.56 297.99 636.5C297.33 636.96 296.66 637.42 296 637.88ZM248 638.37C249.02 638.47 250.05 638.57 251.07 638.68C250.22 638.78 249.36 638.89 248.5 639C248.33 638.79 248.17 638.58 248 638.37ZM276 638.37C275.83 638.58 275.67 638.79 275.5 639C274.35 638.89 273.19 638.79 272.04 638.68C273.36 638.58 274.68 638.47 276 638.37ZM28.68 707.99C28.79 708.83 28.89 709.66 29 710.5C28.78 710.67 28.56 710.83 28.34 711C28.46 710 28.57 709 28.68 707.99ZM1066.31 711.12C1066.42 712.42 1066.54 713.71 1066.65 715C1066.43 714.83 1066.22 714.67 1066 714.5C1066.1 713.37 1066.21 712.25 1066.31 711.12Z" fill="#ffffff" fill-rule="evenodd" stroke="#ffffff" stroke-width="0.25" stroke-linejoin="round"/>
</svg>