<?xml version="1.0" encoding="UTF-8"?>
<svg xmlns="http://www.w3.org/2000/svg" viewBox="0 0 1095 1095" width="1095" height="1095">
<path d="M328.48 201.4C336.71 200.84 345.26 200.77 353.5 201.28C355.85 201.42 358.14 202.13 360.5 202.17C363.2 202.21 365.77 201.67 368.5 201.92C374.55 202.46 380.43 204.02 386.5 204.35C398.44 205 410.54 204.4 422.5 204.44C481.5 204.6 540.5 204.33 599.5 204.39C634.53 204.43 669.67 205.25 704.69 204.47C711.8 204.31 719.27 204.18 726.32 203.59C729.08 203.36 731.73 202.39 734.5 202.19C745.64 201.41 757.35 201.62 768.48 202.4C809.6 205.26 849.26 217.05 887.78 230.66C900.46 235.14 913.11 239.77 925.5 245.05C931.91 247.78 939.19 250.38 944.57 254.95C949.43 259.07 952.65 264.66 955.04 270.49C955.89 272.55 956.36 275.08 957.57 276.95C959.16 279.39 962.33 281.07 964.41 283.1C968.94 287.53 973.03 292.63 976.61 297.86C987.16 313.25 993.88 331.25 1001.27 348.26C1018.65 388.26 1032.43 430.31 1044.34 472.25C1054.65 508.53 1064.89 544.66 1073.11 581.47C1084.07 630.5 1091.15 680.27 1093.37 730.5C1095.85 786.64 1088.4 846.92 1047.82 889.31C1029.48 908.47 997.43 929.98 969.8 923.59C945.17 917.89 926.62 894.79 911.36 876.17C881.7 839.99 852.24 803.32 821.31 768.22C808.55 753.73 796.56 736.49 778.72 727.76C765.2 721.14 752.23 721.25 737.5 721.14C726.5 721.05 715.5 721.11 704.5 721.11C655.17 721.1 605.83 721.03 556.5 721.1C502.17 721.18 447.83 720.98 393.5 721.14C382.5 721.17 371.5 721.16 360.5 721.17C345.36 721.19 330.7 720.32 316.73 727.26C296.67 737.22 278.57 761.7 264.41 778.88C237.46 811.55 209.72 843.58 182.77 876.26C166.12 896.44 145.62 922.3 117.5 924.91C95.78 926.93 69.56 910.42 53.94 896.55C-8.02 841.55 -2.89 748.2 5.8 673.5C7.43 659.42 9.68 645.47 11.74 631.45C17.13 594.69 26.24 558.3 35.96 522.47C50.22 469.95 65.63 417.91 85.74 367.28C94.76 344.56 103.44 320.86 116.59 300.11C120.02 294.71 123.96 289.51 128.36 284.87C130.78 282.31 134.68 280.02 136.55 277.09C137.89 274.99 138.36 272.11 139.37 269.82C142.06 263.76 145.71 258.6 150.79 254.32C160.61 246.01 181.67 239.45 194.08 234.56C236.97 217.65 282.23 204.52 328.48 201.4ZM349.5 259.69C358.03 250.31 366.22 240.55 374.37 230.83C377.76 226.79 382.65 223.3 380.91 217.56C379.07 211.47 371.54 210.2 366.21 209.43C351.74 207.32 336.96 207.51 322.41 208.58C276.33 211.95 231.79 227.04 188.94 243.46C174.21 249.11 153.4 254.39 147 270.5C155.06 268.59 163.95 262.59 171.79 259.34C199.34 247.93 227.24 236.84 256.22 229.61C272.94 225.44 289.27 221.32 306.4 226.23C316.97 229.26 325.87 236.3 333.38 244.13C338.28 249.24 343.33 256.25 349.5 259.69ZM947.26 269.5C939.61 253.85 919.92 249.39 904.93 243.55C862.28 226.92 817.23 213.31 771.5 209.31C757.56 208.09 743.27 208.04 729.37 209.61C723.82 210.24 716.76 210.63 713.73 216.26C710.61 222.05 714.95 225.8 718.51 230C726.92 239.95 734.86 251.42 744.5 260.17C757.6 247.8 769.05 232.11 786.9 226.46C804.14 220.99 822.99 225.8 839.79 230.61C863.84 237.49 887.55 245.39 910.79 254.66C918.55 257.76 926.23 261.12 933.8 264.68C937.81 266.57 943.03 269.61 947.26 269.5ZM708.91 211.15C601.02 211.15 493.13 211.15 385.23 211.15C386.32 214.23 387.41 217.32 388.5 220.4C494.17 220.4 599.83 220.4 705.5 220.4C706.64 217.32 707.78 214.23 708.91 211.15ZM739.27 265.5C734.62 257.1 722.75 245.18 716.14 237.33C714.2 235.04 709.65 228.58 707.11 227.47C703.82 226.03 690.77 227.02 686.5 227.04C670.84 227.14 655.16 227.06 639.5 227.02C583.84 226.91 528.16 226.87 472.5 227.02C452.5 227.08 432.5 226.93 412.5 227.02C407.39 227.04 390.55 225.97 386.77 227.38C384.2 228.34 378.36 236.44 376.38 238.86C369.26 247.56 361.67 255.9 354.41 264.5C356.12 268.47 360.55 271.71 363.54 274.94C371.06 283.04 379.09 290.79 386.97 298.54C397.19 308.58 407.37 318.88 417.2 329.28C423.45 335.9 429.7 343.53 438.15 347.38C450.9 353.17 466.88 350.74 480.5 350.72C508.16 350.69 535.84 350.57 563.5 350.78C583.17 350.93 602.84 350.71 622.5 350.69C633.93 350.68 645.89 352.01 656.57 347.1C667.61 342.02 676.01 330.39 684.43 321.91C696.21 310.05 707.84 297.98 719.39 285.88C725.91 279.05 733.24 272.77 739.27 265.5ZM978.5 918.08C995.43 918.2 1011.29 909.9 1024.8 900.34C1045.71 885.54 1062.26 864.1 1071.77 840.31C1075.01 832.21 1076.79 823.92 1079.21 815.6C1081.35 808.21 1084.27 800.17 1085.13 792.5C1085.46 789.5 1084.86 786.52 1085.18 783.51C1085.86 777.17 1087.03 770.9 1087.08 764.5C1087.79 675.51 1070.9 587.61 1046.05 502.46C1037.45 472.97 1029.21 443.4 1018.96 414.51C1009.29 387.27 999.68 360.08 987.76 333.72C980.4 317.44 972.73 301.32 960.15 288.36C948.32 276.17 931.14 270 915.77 263.7C886.16 251.58 854.98 239.35 823.5 233.07C806.33 229.65 788.53 229.14 774.18 240.65C763.47 249.24 754.29 260.38 744.6 270.1C725.46 289.29 706.84 309.01 687.6 328.1C673.53 342.07 663.36 356.71 641.5 357.07C593.53 357.86 545.47 357.17 497.5 357.07C485.83 357.05 474.17 357.08 462.5 357.05C452.15 357.02 441.94 357.07 432.58 351.95C421.05 345.63 410.32 331.87 401.06 322.44C381.41 302.42 361.52 282.65 341.91 262.59C325.05 245.35 312.45 228.6 285.66 230.44C270.23 231.49 255.16 236.38 240.43 240.85C217.87 247.69 195.54 255.96 173.98 265.48C159.98 271.66 144.99 277.41 134.13 288.63C121.76 301.41 114.3 317.59 107.15 333.61C95.92 358.77 85.88 384.41 76.89 410.43C59.12 461.85 43.77 514.27 31.71 567.37C21 614.55 11.96 662.09 9.01 710.5C7.7 731.94 5.71 754.05 8.05 775.5C8.87 783.01 9.59 791.06 11.06 798.47C12.11 803.8 14.2 808.92 15.41 814.2C22.14 843.61 33.44 867 55.03 888.46C68.89 902.22 96.18 920.76 116.5 917.73C134.15 892.99 154.15 870.45 174.01 847.49C197.03 820.87 220.07 794.25 243.43 767.92C262.47 746.46 283.36 715.85 310.79 705.37C325.62 699.7 340.08 699.66 355.69 699.47C371.96 699.26 388.23 699.57 404.5 699.43C468.31 698.9 532.19 699.03 596 699.48C637.49 699.77 679 699.39 720.5 699.45C744.9 699.48 770.13 697.06 792.32 709.16C806.13 716.7 816.03 727.58 826.49 739.02C837.17 750.7 847.38 762.78 857.73 774.76C887.86 809.61 918.4 844.13 948.14 879.33C954.7 887.1 961.44 894.87 967.46 903.06C971.1 908 974.29 913.65 978.5 918.08ZM539.63 239.34C546.26 238.36 553.27 238.96 559.74 240.65C603.88 252.16 611.98 314.18 572.09 336.56C566.58 339.66 560.51 341.73 554.24 342.57C547.01 343.54 539.47 343.17 532.45 341.15C526.06 339.3 520.5 336.32 515.18 332.35C478.93 305.26 495.53 245.85 539.63 239.34ZM565.24 249.5C553.37 244.4 540.22 243.82 528.43 249.5C530.11 251.51 533.54 252.17 536.22 253.32C539.21 254.6 543.26 257.81 546.53 257.92C550.36 258.04 555.4 253.82 559.03 252.51C560.55 251.97 563.08 251.73 564.38 250.79C564.8 250.49 564.86 249.85 565.24 249.5ZM575.56 257.5C574.92 256.22 574.05 254.41 572.39 254C568.34 252.99 556.28 258.83 552.42 260.93C550.67 261.89 548.61 263.75 546.52 263.69C544.51 263.64 542.4 261.73 540.7 260.79C536.85 258.68 525.67 253.25 521.52 253.8C519.93 254.01 518.73 255.49 517.61 256.5C523.57 261.53 529.54 266.57 535.5 271.6C535.34 275.99 531.43 278.94 528.77 282.27C522.54 290.06 517.11 298.84 513.73 308.27C512.18 312.57 510.69 317.58 513.39 321.5C516.53 318.04 518.02 312.27 520.72 308.24C527.31 298.44 536.25 288.2 546.5 282.13C555.78 286.05 567.4 300.23 572.83 308.69C575.25 312.45 576.62 318.67 579.77 321.5C583.56 317.8 580.73 311.89 579.05 307.49C575.87 299.18 571.31 291.61 566.05 284.44C563.29 280.7 558.51 276.99 557.45 272.5C560.64 265.75 569.55 261.42 575.56 257.5ZM513.5 261.43C503.44 270.54 500.53 286.77 502.78 299.53C503.54 303.88 504.45 308.86 507.5 312.06C510.82 302.52 514.23 293.98 520.03 285.57C523.09 281.13 527.56 277.32 529.87 272.5C525.14 267.98 519.56 263.94 513.5 261.43ZM579.5 261.1C573.8 264.63 568.64 267.92 563.69 272.5C566.71 279.31 573.53 285.28 577.37 292.15C580.2 297.23 583.46 308.7 586.5 311.96C593.05 298.64 593.22 282.6 586.09 269.41C584.41 266.3 582.44 262.98 579.5 261.1ZM838.7 287.33C844.61 286.27 850.69 286.47 856.52 287.84C902.66 298.69 900.51 367.61 854.05 375.51C847.29 376.66 840.23 376.55 833.6 374.75C788 362.4 792.92 295.59 838.7 287.33ZM546.5 288.62C534.42 297.53 521.21 311.25 518.36 326.5C534.54 340.21 558.6 339.55 574.82 326.5C573.49 313.13 557.42 295.75 546.5 288.62ZM841.78 293.44C802.11 298.77 794.98 357.07 834.37 368.23C838.63 369.44 843.06 370.15 847.5 369.85C853.12 369.47 858.7 367.82 863.6 365.08C893.11 348.63 889.65 302.15 855.44 294.2C850.93 293.15 846.38 292.82 841.78 293.44ZM237.66 316.39C247.28 315.39 257.2 316.51 266.52 318.96C275.63 321.34 283.9 325.56 291.59 330.95C341.43 365.91 335.86 441.55 282.49 470.01C271.94 475.64 260.42 478.9 248.51 479.73C237.74 480.47 226.49 478.9 216.38 475.15C203.45 470.35 192.08 462.96 182.66 452.82C174.56 444.11 168.91 433.06 165.71 421.69C151.82 372.46 186.86 321.7 237.66 316.39ZM243.69 322.52C188.17 323.87 151.02 386.17 178.31 435.22C182.23 442.28 187.24 448.79 193.3 454.15C199.62 459.74 206.32 464.24 214.19 467.37C223.63 471.11 233.31 473.25 243.5 473.24C253.79 473.22 263.22 471.04 272.69 467.21C324.33 446.27 336.45 375.5 292.73 339.77C286.56 334.72 279.6 330.29 272.13 327.42C263.09 323.93 253.36 322.29 243.69 322.52ZM238.75 336.41C275.01 331.32 307.81 365.04 305.97 400.5C304.31 432.42 277.95 457.58 246.49 459.71C208.07 462.3 176.93 425.75 183.11 388.51C187.71 360.83 211.6 340.22 238.75 336.41ZM236.62 343.28C212.87 347 191.23 368.16 189.05 392.5C186.1 425.37 213.58 456.22 247.5 453.18C255.92 452.42 263.96 449.98 271.29 445.78C313.97 421.35 305.89 359.26 259.7 344.72C252.42 342.43 244.16 342.1 236.62 343.28ZM758.6 361.33C764.59 360.55 770.98 361.02 776.82 362.57C800.89 368.96 814.4 397.26 805.78 420.31C799.47 437.17 784.58 449.13 766.5 450.81C761.52 451.27 756.21 450.61 751.39 449.27C705.27 436.49 711.64 367.42 758.6 361.33ZM922.75 361.4C928.85 360.5 935.21 360.98 941.2 362.41C964.47 367.96 977.12 393.06 972.79 415.45C969.2 433.98 951.82 448.62 933.42 450.66C927.83 451.27 921.87 450.73 916.47 449.13C871.23 435.67 876.37 368.25 922.75 361.4ZM763.69 367.45C747.8 368.21 731.84 379.03 727.47 394.9C721.51 416.55 734.84 441.75 758.5 444C765.06 444.62 771.85 444.06 777.94 441.46C815.61 425.38 805.59 365.46 763.69 367.45ZM927.81 367.48C888.17 369.93 876.59 426.05 914.06 441.46C918.91 443.45 924.28 444.26 929.5 444.18C970.64 443.54 981.78 383.95 942.68 369.78C937.96 368.07 932.84 367.17 927.81 367.48ZM466.62 373.45C470.82 373.27 475.21 373.97 479.15 375.4C510.43 386.76 502.58 434.46 469.5 436.35C435.71 438.27 423.31 391.98 453.26 376.72C457.39 374.61 462 373.65 466.62 373.45ZM625.65 373.42C629.79 373.12 634.43 373.77 638.33 375.21C669.91 386.9 663.32 434.64 629.5 436.44C596.07 438.22 583.63 393.37 612.63 377.11C616.56 374.91 621.17 373.75 625.65 373.42ZM461.8 380.42C457.79 381.24 453.95 383.76 450.97 386.48C431.94 403.89 449.34 436.3 474.47 428.99C504.34 420.29 494.13 373.8 461.8 380.42ZM622.76 380.41C592.29 385.81 599.38 433.6 630.44 429.73C657.28 426.38 660.24 386.72 633.67 380.69C630.11 379.87 626.37 379.77 622.76 380.41ZM839.7 434.39C845.82 433.47 851.89 433.91 857.83 435.58C903.25 448.36 900.29 516.34 853.37 523.65C846.54 524.71 839.45 524.53 832.78 522.61C787.11 509.47 793.14 441.4 839.7 434.39ZM843.85 440.5C803.16 442.35 794.21 500.75 832.14 515.39C837.48 517.44 842.79 518.09 848.5 517.74C888.91 515.27 897.52 456.99 859.5 443.01C854.46 441.16 849.23 440.25 843.85 440.5ZM387.63 469.42C402.04 468.04 416.78 469.29 430.55 473.87C443.23 478.1 454.99 484.7 465.27 493.22C511.77 531.72 512.74 608.17 470.32 649.82C452.69 667.14 428.94 677.09 404.5 679.21C390.11 680.46 375.14 678.64 361.44 674.12C348.24 669.77 335.39 662.79 325.04 653.47C315.02 644.45 305.9 633.71 299.94 621.54C293.82 609.07 290.14 595.35 289.19 581.5C285.28 524.36 331.8 474.75 387.63 469.42ZM393.71 475.4C383.48 476.45 373.51 477.84 363.75 481.31C337.66 490.59 314.19 511.2 303.5 536.99C299.19 547.38 296.26 559.23 295.89 570.5C293.97 629.12 341.11 674.96 399.5 672.93C447.34 671.26 487.76 635.08 494 587.5C500.47 538.2 469.39 487.96 419.59 477.74C411.3 476.03 402.18 474.53 393.71 475.4ZM429.13 540.5C438.39 541.5 448.17 540.86 457.5 540.8C463.26 540.76 469.16 540.11 474.34 543.14C485.69 549.79 484.71 561.39 484.52 573C484.34 584.17 484.96 595.1 473.54 601.04C463.67 606.18 440.94 601.44 428.9 603.5C426.33 616.09 431.94 639.8 425.69 650.22C419.57 660.43 407.95 659.7 397.5 659.72C385.57 659.75 371.91 661.47 365.54 648.98C360.19 638.51 364.54 615.94 363 603.5C350.36 601.35 327.64 606.71 317.1 600.43C306.37 594.02 307.01 581.45 307.16 570.5C307.31 559.88 307.17 548.16 318.24 542.71C323.03 540.35 328.33 540.86 333.5 540.85C343.12 540.83 353.19 541.59 362.73 540.5C364.85 528.16 359.99 506.09 365.33 495.8C371.81 483.32 385.49 484.67 397.5 484.72C408.3 484.77 419.68 484.02 425.92 494.61C432.39 505.58 425.11 528.91 429.13 540.5ZM687.61 490.37C697.74 489.04 708.73 490.12 718.56 492.82C726.91 495.12 734.54 498.98 741.69 503.84C792.51 538.39 788.13 614.59 734.14 643.63C725.97 648.02 716.71 651.56 707.47 652.75C695.5 654.3 682.98 653.86 671.4 650.21C661 646.93 651.11 641.78 642.78 634.71C634.46 627.65 627.64 619.57 622.67 609.8C596.54 558.51 631.87 497.72 687.61 490.37ZM381.92 491.51C369.87 492.8 370.07 504.11 369.98 513.5C369.93 519.83 369.99 526.17 370.01 532.5C370.02 536.37 370.95 541.54 368.28 544.77C365.29 548.38 359.63 547.37 355.5 547.38C346.74 547.39 329.57 545.61 321.85 548.42C318.99 549.46 316.53 552.02 315.28 554.75C313.11 559.52 313.83 565.41 313.89 570.5C313.94 575.39 313.41 580.62 314.19 585.46C316.1 597.39 328.3 596.29 337.5 596.24C343.5 596.2 349.5 596.2 355.5 596.21C359.32 596.21 364.09 595.54 367.16 598.34C370.75 601.61 370.02 607.15 369.99 611.5C369.95 617.5 369.97 623.5 370.01 629.5C370.07 638.54 368.91 650.69 380.54 652.82C385.34 653.71 390.63 653.09 395.5 653.09C400.68 653.08 406.34 653.72 411.46 652.82C423.24 650.75 421.95 637.43 421.93 628.5C421.91 622.5 421.91 616.5 421.89 610.5C421.87 606.73 421.16 602.34 423.63 599.15C426.74 595.15 433.06 596.31 437.5 596.3C445.65 596.29 462.8 598.08 469.82 595.35C473.27 594.01 475.79 590.89 477.12 587.52C478.88 583.01 478.05 577.26 478.04 572.5C478.04 567.69 478.68 562.39 477.69 557.67C475.31 546.27 463.41 547.38 454.5 547.38C448.5 547.39 442.5 547.49 436.5 547.43C432.55 547.39 427.32 548.29 424.23 545.25C420.93 542 421.93 536.7 421.93 532.5C421.92 526.83 421.92 521.17 421.94 515.5C421.96 506.21 423.13 494.36 411.6 491.7C407.15 490.67 402.04 491.3 397.5 491.31C392.39 491.32 386.99 490.97 381.92 491.51ZM691.87 496.49C636.98 501.12 603.53 560.47 630.06 609.42C634.02 616.72 639.4 623.41 645.72 628.82C652.51 634.63 659.89 639.19 668.33 642.22C678.06 645.73 688.15 647.42 698.5 646.96C709 646.49 719.15 643.64 728.62 639.13C788.85 610.46 783.32 520.31 719.67 499.75C710.86 496.9 701.09 495.71 691.87 496.49ZM689.58 510.3C725.27 505.16 758.39 537.2 757.45 572.5C756.58 605.4 729.8 631.62 697.32 633.53C659.92 635.72 628.82 600.18 634.34 563.62C638.57 535.63 662.04 514.27 689.58 510.3ZM695.79 516.49C668.18 517.49 642.67 539.27 640.23 567.51C637.55 598.61 663.38 626.8 694.5 627.16C702.1 627.25 709.97 625.42 716.95 622.47C761.96 603.46 762 535.71 714.78 519.63C708.69 517.56 702.26 516.26 695.79 516.49ZM967.96 915.5C957.62 897.62 941.87 882.56 928.61 866.86C901.8 835.09 874.61 803.58 847.02 772.48C829.39 752.6 810.59 724.91 786.26 713.26C764.15 702.66 738.28 705.96 714.5 706.02C672.17 706.13 629.83 706.29 587.5 706C526.86 705.6 466.14 705.56 405.5 706C388.83 706.12 372.17 706.03 355.5 706.05C343.42 706.07 331.31 705.47 319.64 709.2C291.31 718.27 275.86 742.33 256.58 763.08C227.65 794.22 200.9 827.43 172.74 859.25C163.19 870.04 153.82 880.98 144.4 891.89C138.17 899.1 130.83 907.03 126.41 915.5C132.75 915.41 139.72 909.73 144.64 906.08C160.22 894.54 172.85 878.5 185.03 863.57C214.93 826.9 245.2 790.43 276.4 754.88C293.61 735.29 312.4 715.37 340.5 714.79C377.46 714.02 414.53 714.75 451.5 714.81C516.17 714.92 580.83 714.87 645.5 714.79C672.5 714.76 699.5 714.8 726.5 714.77C744.87 714.74 763.28 713.13 780.39 721.13C800.7 730.62 815.49 751.19 829.69 767.8C857.08 799.83 883.64 832.56 910.44 865.08C922.23 879.38 934.45 894.96 949.44 906.03C954.59 909.82 961.42 915.18 967.96 915.5Z" fill="#090908" fill-rule="evenodd" stroke="#090908" stroke-width="0.25" stroke-linejoin="round"/>
</svg>